<svg xmlns="http://www.w3.org/2000/svg" viewBox="0 0 107.86 30.23"><defs><style>.cls-1{fill:#fff;}</style></defs><title>Risorsa 1</title><g id="Livello_2" data-name="Livello 2"><g id="Livello_1-2" data-name="Livello 1"><path class="cls-1" d="M30.26,10.76c-.83-2.4-4.65-3.45-9.68-3,2.41.42,4.1,1.39,4.61,2.89s-.17,3.13-1.67,4.84c-.18-.62-.37-1.25-.59-1.88A35.81,35.81,0,0,0,20,7.19a35.31,35.31,0,0,1,7.18-1.43A23.63,23.63,0,0,0,19.29,6C16.54,1.74,13.34-.66,10.89.16s-3.5,4.6-3.08,9.57c.42-2.38,1.41-4.05,2.92-4.56s3.17.17,4.9,1.65c-.63.18-1.26.37-1.9.59a37.06,37.06,0,0,0-6.46,2.86,33.77,33.77,0,0,1-1.44-7.1A22.84,22.84,0,0,0,6.05,11C1.76,13.72-.67,16.89.16,19.31s4.66,3.46,9.68,3.05c-2.41-.42-4.09-1.4-4.61-2.89s.17-3.13,1.67-4.84c.18.62.38,1.24.59,1.87a36.65,36.65,0,0,0,2.9,6.39,35.12,35.12,0,0,1-7.18,1.42,23.6,23.6,0,0,0,7.92-.21c2.75,4.24,6,6.64,8.4,5.82s3.5-4.61,3.09-9.57c-.43,2.38-1.42,4-2.93,4.55s-3.16-.16-4.89-1.64c.62-.18,1.26-.38,1.9-.59a36.55,36.55,0,0,0,6.45-2.87,34,34,0,0,1,1.44,7.1,22.59,22.59,0,0,0-.22-7.83C28.67,16.35,31.09,13.18,30.26,10.76ZM13.38,21.87A29.5,29.5,0,0,1,8.3,13.23,30.07,30.07,0,0,1,17,8.2a30,30,0,0,1,5.09,8.64A30,30,0,0,1,13.38,21.87Z"/><path class="cls-1" d="M41.2,4.14,39.42,8.3H43Zm-2.12,5a27.31,27.31,0,0,0-1.58,4.39,3.53,3.53,0,0,0-.7-.1,4.28,4.28,0,0,0-.74.1c1.51-3.25,4-8.72,5.22-11.74a2.42,2.42,0,0,0,.43.05,1.14,1.14,0,0,0,.37-.05c1.31,3.53,5.06,11.68,5.09,11.74a5.34,5.34,0,0,0-1-.1,6.65,6.65,0,0,0-1.09.1,30.32,30.32,0,0,0-1.71-4.39Z"/><path class="cls-1" d="M54.57,4.06A2.27,2.27,0,0,0,52.21,2.5,1.92,1.92,0,0,0,50,4.43c0,1.32,1.12,1.77,2,2.11a8.35,8.35,0,0,1,2.77,1.31,2.67,2.67,0,0,1,1,2.15c0,1.74-1.24,3.74-4.26,3.74a5.08,5.08,0,0,1-3.09-.93,6.92,6.92,0,0,0,.31-1.57h.22A3.07,3.07,0,0,0,51.75,13a2.24,2.24,0,0,0,2.51-2.23c0-1.36-1-1.86-2.1-2.31-2-.83-2.21-.91-2.67-1.31a2.74,2.74,0,0,1-.84-2.08c0-2.17,1.76-3.26,3.76-3.26a6,6,0,0,1,2.89.77,4.75,4.75,0,0,0-.5,1.5Z"/><path class="cls-1" d="M62,4.14,60.17,8.3h3.61Zm-2.12,5a27.31,27.31,0,0,0-1.58,4.39,3.42,3.42,0,0,0-.7-.1,4.28,4.28,0,0,0-.74.1c1.51-3.25,4-8.72,5.22-11.74a2.42,2.42,0,0,0,.43.05,1.14,1.14,0,0,0,.37-.05c1.31,3.53,5.06,11.68,5.09,11.74a5.34,5.34,0,0,0-1-.1,6.65,6.65,0,0,0-1.09.1,30.32,30.32,0,0,0-1.71-4.39Z"/><path class="cls-1" d="M79.25,11.29a7.5,7.5,0,0,0-.18,1.36,8.39,8.39,0,0,1-4.21,1.09c-3.94,0-6.23-2.55-6.23-6,0-3.24,2-5.92,6.5-5.92a9.86,9.86,0,0,1,4.19.89,5.67,5.67,0,0,0-.41,1.68h-.17a4.16,4.16,0,0,0-3.68-1.85c-2.68,0-4.46,2-4.46,5.18,0,3.49,2.19,5.22,4.6,5.22a5,5,0,0,0,3.85-1.73Z"/><path class="cls-1" d="M87.14,6.88a3,3,0,0,0-.06.57c0,.18,0,.33.06.52a21,21,0,0,0-2.63-.17c-.45,0-1,0-1.37,0,0,.72,0,1.48,0,2.2,0,.87,0,2.15,0,2.6a40.91,40.91,0,0,0,4.46-.2,2.34,2.34,0,0,0-.07.57,1.94,1.94,0,0,0,.07.53,18.63,18.63,0,0,0-2.36-.1c-1.31,0-2.63.05-3.94.1a58.72,58.72,0,0,0,.19-6c0-1.68,0-3.94-.14-5.59,1.19.1,2.36.1,3.55.1a24.73,24.73,0,0,0,2.58-.1,3.53,3.53,0,0,0-.07.59,2.54,2.54,0,0,0,.07.54,12.31,12.31,0,0,0-2.7-.22c-.61,0-.91,0-1.64,0,0,.66,0,.94,0,1.93s0,1.29,0,2.18a31.34,31.34,0,0,0,4-.11"/><path class="cls-1" d="M92.81,2.67a7.41,7.41,0,0,0-1.07.08c0,.75,0,1.53,0,2.28s0,2,0,2.3a5.31,5.31,0,0,0,.9,0c.77,0,3.11-.13,3.11-2.46,0-2-1.68-2.21-2.92-2.21m5.73,10.86a6.39,6.39,0,0,0-1-.1c-.35,0-.74.05-1.22.1a47.34,47.34,0,0,0-4.15-5.61h-.45c0,1.19,0,2.93.12,5.61a5.34,5.34,0,0,0-1-.1,3.66,3.66,0,0,0-.9.1c.08-2,.12-4,.12-6.42,0-1.56,0-3.3-.1-5.18A14.67,14.67,0,0,0,91.45,2h2c2,0,2.65.25,3.21.7a2.41,2.41,0,0,1,.86,2c0,2.4-2.29,2.82-3.32,3,.62,1,4.17,5.35,4.37,5.63Z"/><path class="cls-1" d="M102.51,2.87a22.34,22.34,0,0,0-3.76.23,3,3,0,0,0,.07-.59,2.69,2.69,0,0,0-.07-.58c1,.1,3.22.1,4.56.1,1.66,0,3.46,0,4.55-.1a2.69,2.69,0,0,0-.07.58,3,3,0,0,0,.07.59,21.34,21.34,0,0,0-3.61-.23c0,1.15,0,2.33,0,3.47,0,2-.07,4.66.12,7.19a9.19,9.19,0,0,0-1.09-.1,4.42,4.42,0,0,0-.88.1c.14-1.84.19-4.29.19-6.55,0-1.53,0-3,0-4.11"/><rect class="cls-1" x="36.21" y="17.18" width="71.59" height="0.43"/><path class="cls-1" d="M37.93,20.53l-.65,1.53h1.33Zm-.78,1.84A10.14,10.14,0,0,0,36.58,24a1.43,1.43,0,0,0-.26,0,1.56,1.56,0,0,0-.27,0c.55-1.2,1.47-3.2,1.91-4.31l.16,0,.14,0C38.74,21,40.11,24,40.13,24a1.9,1.9,0,0,0-.37,0,2.25,2.25,0,0,0-.4,0,10.78,10.78,0,0,0-.63-1.61Z"/><path class="cls-1" d="M45.36,20.5a.84.84,0,0,0-.87-.57.71.71,0,0,0-.8.71c0,.48.42.65.73.77a3.15,3.15,0,0,1,1,.48,1,1,0,0,1,.35.79,1.4,1.4,0,0,1-1.57,1.37,1.8,1.8,0,0,1-1.13-.34,2.27,2.27,0,0,0,.11-.57h.08a1.13,1.13,0,0,0,1,.64.83.83,0,0,0,.93-.82c0-.5-.36-.69-.78-.85-.73-.3-.81-.33-1-.48a1,1,0,0,1-.32-.77,1.23,1.23,0,0,1,1.39-1.19,2.16,2.16,0,0,1,1.06.28,1.65,1.65,0,0,0-.19.55Z"/><path class="cls-1" d="M51.34,20.5a.84.84,0,0,0-.87-.57.71.71,0,0,0-.8.71c0,.48.42.65.73.77a3.15,3.15,0,0,1,1,.48,1,1,0,0,1,.35.79,1.4,1.4,0,0,1-1.57,1.37,1.8,1.8,0,0,1-1.13-.34,2.27,2.27,0,0,0,.11-.57h.08a1.13,1.13,0,0,0,1,.64.83.83,0,0,0,.93-.82c0-.5-.36-.69-.78-.85-.73-.3-.81-.33-1-.48a1,1,0,0,1-.32-.77,1.23,1.23,0,0,1,1.39-1.19,2.16,2.16,0,0,1,1.06.28,1.47,1.47,0,0,0-.18.55Z"/><path class="cls-1" d="M57.32,21.54a.6.6,0,0,0,0,.2,1.38,1.38,0,0,0,0,.2,6.91,6.91,0,0,0-1-.07l-.5,0c0,.26,0,.54,0,.8s0,.79,0,1a13.77,13.77,0,0,0,1.64-.08,1.36,1.36,0,0,0,0,.21,1,1,0,0,0,0,.2,6.19,6.19,0,0,0-.86,0c-.48,0-1,0-1.45,0a21.65,21.65,0,0,0,.07-2.2c0-.62,0-1.45,0-2.06.44,0,.87,0,1.3,0a7.55,7.55,0,0,0,1,0,1.46,1.46,0,0,0,0,.22.94.94,0,0,0,0,.2,4.18,4.18,0,0,0-1-.08h-.61c0,.24,0,.34,0,.71s0,.47,0,.8a14.43,14.43,0,0,0,1.47,0"/><path class="cls-1" d="M63,20.5a.83.83,0,0,0-.87-.57.7.7,0,0,0-.79.71c0,.48.41.65.72.77a3.15,3.15,0,0,1,1,.48,1,1,0,0,1,.35.79,1.4,1.4,0,0,1-1.57,1.37,1.8,1.8,0,0,1-1.13-.34,2.27,2.27,0,0,0,.11-.57h.08a1.13,1.13,0,0,0,1,.64.83.83,0,0,0,.93-.82c0-.5-.36-.69-.78-.85-.72-.3-.81-.33-1-.48a1,1,0,0,1-.32-.77,1.23,1.23,0,0,1,1.39-1.19,2.16,2.16,0,0,1,1.06.28,1.47,1.47,0,0,0-.18.55Z"/><path class="cls-1" d="M68.93,20.5a.83.83,0,0,0-.87-.57.7.7,0,0,0-.79.71c0,.48.41.65.72.77a3.15,3.15,0,0,1,1,.48,1,1,0,0,1,.35.79,1.4,1.4,0,0,1-1.57,1.37,1.8,1.8,0,0,1-1.13-.34,2.27,2.27,0,0,0,.11-.57h.08a1.13,1.13,0,0,0,1,.64.83.83,0,0,0,.93-.82c0-.5-.36-.69-.78-.85-.72-.3-.81-.33-1-.48a1,1,0,0,1-.32-.77,1.23,1.23,0,0,1,1.39-1.19A2.16,2.16,0,0,1,69.2,20a1.47,1.47,0,0,0-.18.55Z"/><path class="cls-1" d="M76.78,20.82c-.45.8-.87,1.61-1.29,2.43a6,6,0,0,0-.32.73H75c-.11-.25-.18-.41-.29-.62-.44-.83-.94-1.78-1.35-2.48a24.67,24.67,0,0,0-.25,3.1,1.2,1.2,0,0,0-.24,0,1.68,1.68,0,0,0-.3,0c.06-.29.5-2.94.64-4.29l.11,0,.12,0c.19.41,1.41,2.69,1.8,3.32,1-1.84,1.12-2,1.49-2.73a6,6,0,0,0,.28-.59l.12,0,.11,0c.15,1.3.35,3.13.51,4.12l0,.17a2.88,2.88,0,0,0-.35,0,1.69,1.69,0,0,0-.38,0c0-.66-.26-3-.28-3.16"/><path class="cls-1" d="M83.31,21.54a1.12,1.12,0,0,0,0,.2,1.36,1.36,0,0,0,0,.2,6.78,6.78,0,0,0-1-.07l-.51,0c0,.26,0,.54,0,.8s0,.79,0,1a13.85,13.85,0,0,0,1.64-.08.71.71,0,0,0,0,.21.56.56,0,0,0,0,.2,6.33,6.33,0,0,0-.87,0c-.48,0-1,0-1.45,0a21.65,21.65,0,0,0,.07-2.2c0-.62,0-1.45,0-2.06.44,0,.87,0,1.31,0a7.47,7.47,0,0,0,.94,0,1.5,1.5,0,0,0,0,.22,1,1,0,0,0,0,.2,4.18,4.18,0,0,0-1-.08h-.6c0,.24,0,.34,0,.71v.8a14.35,14.35,0,0,0,1.47,0"/><path class="cls-1" d="M87.23,21.18c0,1.49,0,1.85.1,2.8a1,1,0,0,0-.26,0,.87.87,0,0,0-.25,0c0-.31.09-1.37.09-2,0-.24,0-1.32,0-1.54v-.74l.1,0,.13,0,.2.24c.17.2.32.36.7.76,1.25,1.3,1.38,1.44,2.17,2.24V22.7a30.07,30.07,0,0,0-.08-3,.87.87,0,0,0,.25,0,1,1,0,0,0,.26,0,23.83,23.83,0,0,0-.1,2.67c0,.48,0,1.22,0,1.66h-.21c-.2-.24-1.13-1.27-1.57-1.67l-.32-.3L87.23,20.8Z"/><path class="cls-1" d="M95.09,20.06a8.2,8.2,0,0,0-1.38.09,1.27,1.27,0,0,0,0-.22,1.15,1.15,0,0,0,0-.21c.38,0,1.18,0,1.67,0s1.27,0,1.67,0a1.06,1.06,0,0,0,0,.21,1.27,1.27,0,0,0,0,.22,7.85,7.85,0,0,0-1.32-.09c0,.43,0,.86,0,1.28,0,.74,0,1.71.05,2.64l-.4,0A1.83,1.83,0,0,0,95,24c0-.68.07-1.58.07-2.41,0-.56,0-1.09,0-1.51"/><path class="cls-1" d="M105.41,21.41a1.07,1.07,0,0,0,.57-.9.46.46,0,0,0-.47-.5.5.5,0,0,0-.52.55,1.43,1.43,0,0,0,.42.85m0,2.3a1.31,1.31,0,0,0,.89-.41c-.32-.33-1-1.11-1.25-1.44a1,1,0,0,0-.61.89,1,1,0,0,0,1,1m1.9-2.08a.84.84,0,0,0,.3.29,5.49,5.49,0,0,1-.76,1.13,9.71,9.71,0,0,0,.82.84V24a1.08,1.08,0,0,0-.36,0,1.57,1.57,0,0,0-.41,0,5,5,0,0,0-.45-.51,1.81,1.81,0,0,1-1.34.59A1.1,1.1,0,0,1,103.85,23c0-.54.3-.88,1.07-1.26a1.49,1.49,0,0,1-.4-.94.93.93,0,0,1,1-1c.6,0,.84.33.84.71s-.34.72-.81,1.06c.35.43.82,1,1.11,1.3a2.32,2.32,0,0,0,.59-1.23Z"/><path class="cls-1" d="M40,29.31a2.59,2.59,0,0,0-.07.5,3.05,3.05,0,0,1-1.54.4,2.19,2.19,0,1,1,.09-4.38,3.67,3.67,0,0,1,1.54.33,2,2,0,0,0-.15.62h-.06a1.51,1.51,0,0,0-1.35-.68c-1,0-1.64.71-1.64,1.9a1.72,1.72,0,0,0,1.69,1.92A1.85,1.85,0,0,0,40,29.28Z"/><path class="cls-1" d="M45.12,27.69a.71.71,0,0,0,0,.21,1.08,1.08,0,0,0,0,.19,8.68,8.68,0,0,0-1-.06h-.51c0,.27,0,.55,0,.81s0,.79,0,1a13.85,13.85,0,0,0,1.64-.08,1.33,1.33,0,0,0,0,.21.94.94,0,0,0,0,.2,6.33,6.33,0,0,0-.87,0c-.48,0-1,0-1.44,0a21.76,21.76,0,0,0,.07-2.21c0-.61,0-1.44,0-2.05.43,0,.86,0,1.3,0s.63,0,1,0a.78.78,0,0,0,0,.22.64.64,0,0,0,0,.2,4.28,4.28,0,0,0-1-.08h-.6c0,.24,0,.34,0,.71v.8a12.13,12.13,0,0,0,1.48,0"/><path class="cls-1" d="M49.38,26.15a2.83,2.83,0,0,0-.4,0c0,.28,0,.56,0,.84s0,.71,0,.84h.33c.28,0,1.14-.05,1.14-.91s-.62-.81-1.07-.81m2.1,4a2.21,2.21,0,0,0-.37,0,4.36,4.36,0,0,0-.45,0,16.49,16.49,0,0,0-1.52-2.06H49c0,.43,0,1.07,0,2.06a1.47,1.47,0,0,0-.36,0,1.22,1.22,0,0,0-.33,0c0-.73,0-1.46,0-2.36,0-.57,0-1.21,0-1.9.24,0,.42,0,.55,0h.72c.74,0,1,.09,1.18.25a.92.92,0,0,1,.31.74c0,.88-.84,1-1.22,1.11.23.35,1.54,2,1.61,2.06Z"/><path class="cls-1" d="M55.12,26.22a8.11,8.11,0,0,0-1.38.09,1.38,1.38,0,0,0,0-.22,1.06,1.06,0,0,0,0-.21c.38,0,1.18,0,1.67,0s1.27,0,1.67,0a1.06,1.06,0,0,0,0,.21,1.38,1.38,0,0,0,0,.22,7.9,7.9,0,0,0-1.33-.09c0,.43,0,.86,0,1.28,0,.74,0,1.71,0,2.64l-.4,0a1.71,1.71,0,0,0-.33,0c0-.68.07-1.58.07-2.41,0-.56,0-1.09,0-1.51"/><path class="cls-1" d="M60,25.88a1.46,1.46,0,0,0,.34,0,1.66,1.66,0,0,0,.36,0c0,.73,0,1.46,0,2.19,0,1.11,0,1.61,0,2.07a2.34,2.34,0,0,0-.39,0,1.49,1.49,0,0,0-.33,0c0-.67.06-1,.06-2.19,0-.89,0-.95,0-2.07"/><path class="cls-1" d="M64.76,28.9a8.44,8.44,0,0,0,0,1.24,1.73,1.73,0,0,0-.37,0,1.31,1.31,0,0,0-.34,0c0-.63.06-1.29.06-2.09,0-.6,0-1.58,0-2.17a7.57,7.57,0,0,0,1,0,9.85,9.85,0,0,0,1.28,0,1.38,1.38,0,0,0,0,.22,1.15,1.15,0,0,0,0,.21,8.66,8.66,0,0,0-1.23-.09h-.4c0,.24,0,.35,0,.71v.8a11.94,11.94,0,0,0,1.51,0,1.3,1.3,0,0,0,0,.22,1.06,1.06,0,0,0,0,.2,6.54,6.54,0,0,0-1-.07h-.49Z"/><path class="cls-1" d="M69.58,25.88a1.46,1.46,0,0,0,.34,0,1.73,1.73,0,0,0,.36,0c0,.73,0,1.46,0,2.19,0,1.11,0,1.61,0,2.07a2.11,2.11,0,0,0-.38,0,1.49,1.49,0,0,0-.33,0c0-.67.06-1,.06-2.19,0-.89,0-.95,0-2.07"/><path class="cls-1" d="M77.38,29.31a3.74,3.74,0,0,0-.07.5,3,3,0,0,1-1.54.4,2.2,2.2,0,1,1,.1-4.38,3.71,3.71,0,0,1,1.54.33,1.76,1.76,0,0,0-.15.62h-.07a1.5,1.5,0,0,0-1.35-.68c-1,0-1.64.71-1.64,1.9a1.72,1.72,0,0,0,1.69,1.92,1.88,1.88,0,0,0,1.42-.64Z"/><path class="cls-1" d="M81.7,26.69l-.65,1.53h1.33Zm-.77,1.83a9.52,9.52,0,0,0-.58,1.62,1.43,1.43,0,0,0-.26,0,1.56,1.56,0,0,0-.27,0c.55-1.2,1.47-3.2,1.91-4.31l.16,0,.14,0c.48,1.29,1.85,4.28,1.87,4.31a1.9,1.9,0,0,0-.37,0,2.25,2.25,0,0,0-.4,0,11,11,0,0,0-.63-1.62Z"/><path class="cls-1" d="M87.17,26.22a8.2,8.2,0,0,0-1.38.09,1.3,1.3,0,0,0,0-.22,1,1,0,0,0,0-.21c.39,0,1.18,0,1.68,0s1.27,0,1.67,0a.58.58,0,0,0,0,.21.73.73,0,0,0,0,.22,8,8,0,0,0-1.33-.09c0,.43,0,.86,0,1.28,0,.74,0,1.71,0,2.64l-.4,0a1.58,1.58,0,0,0-.32,0c0-.68.07-1.58.07-2.41,0-.56,0-1.09,0-1.51"/><path class="cls-1" d="M92.08,25.88a1.52,1.52,0,0,0,.34,0,1.77,1.77,0,0,0,.37,0c0,.73-.05,1.46-.05,2.19,0,1.11,0,1.61,0,2.07a2.34,2.34,0,0,0-.39,0,1.57,1.57,0,0,0-.33,0c0-.67.06-1,.06-2.19,0-.89,0-.95,0-2.07"/><path class="cls-1" d="M98.4,30c1,0,1.68-.71,1.68-2a2.59,2.59,0,0,0-.27-1.19,1.62,1.62,0,0,0-1.39-.72c-.83,0-1.67.55-1.67,1.94A1.71,1.71,0,0,0,98.4,30m2.39-2a2.23,2.23,0,0,1-2.41,2.27A2.21,2.21,0,1,1,100.79,28"/><path class="cls-1" d="M104.29,27.34c0,1.49,0,1.84.1,2.8a.89.89,0,0,0-.26,0,.75.75,0,0,0-.24,0c0-.31.08-1.37.08-2,0-.25,0-1.32,0-1.54v-.74h.23l.2.24c.17.19.32.36.7.75,1.25,1.3,1.38,1.45,2.18,2.25v-.23a26.75,26.75,0,0,0-.09-3,.87.87,0,0,0,.25,0,1.17,1.17,0,0,0,.27,0,21.68,21.68,0,0,0-.11,2.67c0,.48,0,1.22,0,1.66l-.11,0-.1,0c-.2-.24-1.13-1.27-1.57-1.67-.1-.1-.21-.2-.31-.31L104.29,27Z"/></g></g></svg>